<svg xmlns="http://www.w3.org/2000/svg" width="32" height="32"><path d="M30.276 1.722C29.168.611 27.69 0 26.121 0s-3.045.61-4.154 1.72L4.294 19.291a.991.991 0 0 0-.235.367l-4 11A1.003 1.003 0 0 0 1 32a.987.987 0 0 0 .293-.044l9.949-3.052a.999.999 0 0 0 .414-.248l18.621-18.621A5.833 5.833 0 0 0 32 5.878a5.835 5.835 0 0 0-1.724-4.156zM10.092 27.165l-3.724 1.144a4.272 4.272 0 0 0-1.016-1.662 5.404 5.404 0 0 0-1.356-.961L5.7 21H8v2a1 1 0 0 0 1 1h1.765l-.673 3.165zm14.72-14.494L12.628 24.855l.35-1.647A1 1 0 0 0 12 22h-2v-2a1 1 0 0 0-1-1H7.422L19.315 7.175l.012.011c.732-.733 1.707-1.136 2.742-1.136s2.011.403 2.742 1.136 1.138 1.707 1.138 2.743a3.848 3.848 0 0 1-1.137 2.742zm4.05-4.05l-.932.933a5.837 5.837 0 0 0-1.703-3.782 5.826 5.826 0 0 0-3.787-1.703l.938-.931.002-.002C24.11 2.403 25.085 2 26.121 2s2.01.403 2.741 1.136A3.85 3.85 0 0 1 30 5.878a3.84 3.84 0 0 1-1.138 2.743zm-6.569-.328l-10 10a.999.999 0 1 0 1.414 1.414l10-10a.999.999 0 1 0-1.414-1.414z"/></svg>